<mxfile host="65bd71144e">
    <diagram id="irpZLFtTIUz56FrzHntx" name="Page-1">
        <mxGraphModel dx="797" dy="600" grid="1" gridSize="10" guides="1" tooltips="1" connect="1" arrows="1" fold="1" page="1" pageScale="1" pageWidth="850" pageHeight="1100" math="0" shadow="0">
            <root>
                <mxCell id="0"/>
                <mxCell id="1" parent="0"/>
                <mxCell id="2" value="" style="rounded=1;whiteSpace=wrap;html=1;" parent="1" vertex="1">
                    <mxGeometry x="10" y="30" width="650" height="310" as="geometry"/>
                </mxCell>
                <mxCell id="Knk09Rekkzwcl5rJCwnq-8" style="edgeStyle=orthogonalEdgeStyle;rounded=0;orthogonalLoop=1;jettySize=auto;html=1;entryX=1;entryY=0.5;entryDx=0;entryDy=0;" parent="1" source="Knk09Rekkzwcl5rJCwnq-1" target="Knk09Rekkzwcl5rJCwnq-2" edge="1">
                    <mxGeometry relative="1" as="geometry"/>
                </mxCell>
                <mxCell id="Knk09Rekkzwcl5rJCwnq-1" value="Tilastokeskus API&lt;br&gt;- stat.fi" style="rounded=1;whiteSpace=wrap;html=1;" parent="1" vertex="1">
                    <mxGeometry x="535" y="150" width="110" height="40" as="geometry"/>
                </mxCell>
                <mxCell id="Knk09Rekkzwcl5rJCwnq-2" value="Productizer API App&lt;br&gt;- Virtual Finland" style="rounded=1;whiteSpace=wrap;html=1;" parent="1" vertex="1">
                    <mxGeometry x="490" y="70" width="120" height="40" as="geometry"/>
                </mxCell>
                <mxCell id="Knk09Rekkzwcl5rJCwnq-3" value="Testbed API GW&lt;br&gt;- testbed.fi" style="rounded=1;whiteSpace=wrap;html=1;" parent="1" vertex="1">
                    <mxGeometry x="325" y="120" width="110" height="40" as="geometry"/>
                </mxCell>
                <mxCell id="Knk09Rekkzwcl5rJCwnq-4" value="Frontend app&lt;br&gt;- Virtual Finland" style="rounded=1;whiteSpace=wrap;html=1;" parent="1" vertex="1">
                    <mxGeometry x="130" y="100" width="100" height="40" as="geometry"/>
                </mxCell>
                <mxCell id="Knk09Rekkzwcl5rJCwnq-5" value="Browser user" style="shape=umlActor;verticalLabelPosition=bottom;verticalAlign=top;html=1;outlineConnect=0;" parent="1" vertex="1">
                    <mxGeometry x="40" y="90" width="30" height="60" as="geometry"/>
                </mxCell>
                <mxCell id="Knk09Rekkzwcl5rJCwnq-11" value="" style="endArrow=classic;startArrow=classic;html=1;rounded=0;entryX=-0.038;entryY=0.43;entryDx=0;entryDy=0;entryPerimeter=0;" parent="1" source="Knk09Rekkzwcl5rJCwnq-5" target="Knk09Rekkzwcl5rJCwnq-4" edge="1">
                    <mxGeometry width="50" height="50" relative="1" as="geometry">
                        <mxPoint x="210" y="210" as="sourcePoint"/>
                        <mxPoint x="260" y="160" as="targetPoint"/>
                    </mxGeometry>
                </mxCell>
                <mxCell id="Knk09Rekkzwcl5rJCwnq-18" value="*Response&#10;Figure/Population" style="swimlane;fontStyle=0;childLayout=stackLayout;horizontal=1;startSize=30;horizontalStack=0;resizeParent=1;resizeParentMax=0;resizeLast=0;collapsible=1;marginBottom=0;" parent="1" vertex="1">
                    <mxGeometry x="325" y="200" width="190" height="100" as="geometry"/>
                </mxCell>
                <mxCell id="Knk09Rekkzwcl5rJCwnq-19" value="description: str&#10;sourceName: str&#10;population: int&#10;updatedAt: datetime" style="text;strokeColor=none;fillColor=none;align=left;verticalAlign=middle;spacingLeft=4;spacingRight=4;overflow=hidden;points=[[0,0.5],[1,0.5]];portConstraint=eastwest;rotatable=0;" parent="Knk09Rekkzwcl5rJCwnq-18" vertex="1">
                    <mxGeometry y="30" width="190" height="70" as="geometry"/>
                </mxCell>
                <mxCell id="Knk09Rekkzwcl5rJCwnq-23" value="*Request&#10;Figure/Population" style="swimlane;fontStyle=0;childLayout=stackLayout;horizontal=1;startSize=30;horizontalStack=0;resizeParent=1;resizeParentMax=0;resizeLast=0;collapsible=1;marginBottom=0;" parent="1" vertex="1">
                    <mxGeometry x="95" y="200" width="190" height="70" as="geometry"/>
                </mxCell>
                <mxCell id="Knk09Rekkzwcl5rJCwnq-24" value="city: str&#10;year: int" style="text;strokeColor=none;fillColor=none;align=left;verticalAlign=middle;spacingLeft=4;spacingRight=4;overflow=hidden;points=[[0,0.5],[1,0.5]];portConstraint=eastwest;rotatable=0;" parent="Knk09Rekkzwcl5rJCwnq-23" vertex="1">
                    <mxGeometry y="30" width="190" height="40" as="geometry"/>
                </mxCell>
                <mxCell id="3" value="Frontend app backend service&lt;br&gt;- Virtual Finland" style="rounded=1;whiteSpace=wrap;html=1;" vertex="1" parent="1">
                    <mxGeometry x="230" y="40" width="110" height="50" as="geometry"/>
                </mxCell>
                <mxCell id="10" value="" style="endArrow=classic;startArrow=classic;html=1;entryX=0.5;entryY=0;entryDx=0;entryDy=0;exitX=1;exitY=0.5;exitDx=0;exitDy=0;" edge="1" parent="1" source="3" target="Knk09Rekkzwcl5rJCwnq-3">
                    <mxGeometry width="50" height="50" relative="1" as="geometry">
                        <mxPoint x="340" y="110" as="sourcePoint"/>
                        <mxPoint x="390" y="60" as="targetPoint"/>
                        <Array as="points">
                            <mxPoint x="390" y="80"/>
                        </Array>
                    </mxGeometry>
                </mxCell>
                <mxCell id="11" value="" style="endArrow=classic;startArrow=classic;html=1;entryX=0;entryY=0.5;entryDx=0;entryDy=0;exitX=0.994;exitY=0.604;exitDx=0;exitDy=0;exitPerimeter=0;" edge="1" parent="1" source="Knk09Rekkzwcl5rJCwnq-3" target="Knk09Rekkzwcl5rJCwnq-2">
                    <mxGeometry width="50" height="50" relative="1" as="geometry">
                        <mxPoint x="420" y="100" as="sourcePoint"/>
                        <mxPoint x="470" y="50" as="targetPoint"/>
                        <Array as="points">
                            <mxPoint x="460" y="100"/>
                        </Array>
                    </mxGeometry>
                </mxCell>
                <mxCell id="12" value="" style="endArrow=classic;startArrow=classic;html=1;entryX=0;entryY=0.5;entryDx=0;entryDy=0;exitX=0.5;exitY=0;exitDx=0;exitDy=0;" edge="1" parent="1" source="Knk09Rekkzwcl5rJCwnq-4" target="3">
                    <mxGeometry width="50" height="50" relative="1" as="geometry">
                        <mxPoint x="150" y="90" as="sourcePoint"/>
                        <mxPoint x="200" y="40" as="targetPoint"/>
                        <Array as="points">
                            <mxPoint x="190" y="65"/>
                        </Array>
                    </mxGeometry>
                </mxCell>
                <mxCell id="13" value="" style="endArrow=none;dashed=1;html=1;dashPattern=1 3;strokeWidth=2;exitX=0.75;exitY=0;exitDx=0;exitDy=0;" edge="1" parent="1" source="Knk09Rekkzwcl5rJCwnq-18">
                    <mxGeometry width="50" height="50" relative="1" as="geometry">
                        <mxPoint x="310" y="230" as="sourcePoint"/>
                        <mxPoint x="350" y="70" as="targetPoint"/>
                        <Array as="points">
                            <mxPoint x="450" y="60"/>
                        </Array>
                    </mxGeometry>
                </mxCell>
                <mxCell id="14" value="" style="endArrow=none;dashed=1;html=1;dashPattern=1 3;strokeWidth=2;exitX=0.5;exitY=0;exitDx=0;exitDy=0;" edge="1" parent="1" source="Knk09Rekkzwcl5rJCwnq-23">
                    <mxGeometry width="50" height="50" relative="1" as="geometry">
                        <mxPoint x="220" y="180" as="sourcePoint"/>
                        <mxPoint x="380" y="120" as="targetPoint"/>
                        <Array as="points">
                            <mxPoint x="330" y="100"/>
                        </Array>
                    </mxGeometry>
                </mxCell>
            </root>
        </mxGraphModel>
    </diagram>
</mxfile>